<mxfile host="app.diagrams.net" modified="2023-10-12T17:48:23.137Z" agent="Mozilla/5.0 (Windows NT 10.0; Win64; x64; rv:109.0) Gecko/20100101 Firefox/118.0" etag="c2ZsiIjTJpRgiqwStqrQ" version="22.0.4" type="device">
  <diagram name="PÃ¡gina-1" id="YjCX_saZMy3gZ5nOOuut">
    <mxGraphModel dx="1728" dy="922" grid="1" gridSize="10" guides="1" tooltips="1" connect="1" arrows="1" fold="1" page="1" pageScale="1" pageWidth="827" pageHeight="1169" math="0" shadow="0">
      <root>
        <mxCell id="0" />
        <mxCell id="1" parent="0" />
        <mxCell id="RTo3BK1jIsYrV9mF9zAV-208" value="" style="rounded=0;whiteSpace=wrap;html=1;" parent="1" vertex="1">
          <mxGeometry x="90" y="90" width="620" height="190" as="geometry" />
        </mxCell>
        <mxCell id="RTo3BK1jIsYrV9mF9zAV-209" value="" style="rounded=0;whiteSpace=wrap;html=1;" parent="1" vertex="1">
          <mxGeometry x="90" y="90" width="620" height="50" as="geometry" />
        </mxCell>
        <mxCell id="RTo3BK1jIsYrV9mF9zAV-211" value="" style="ellipse;whiteSpace=wrap;html=1;aspect=fixed;" parent="1" vertex="1">
          <mxGeometry x="640" y="100" width="30" height="30" as="geometry" />
        </mxCell>
        <mxCell id="RTo3BK1jIsYrV9mF9zAV-212" value="" style="strokeWidth=2;html=1;shape=mxgraph.flowchart.merge_or_storage;whiteSpace=wrap;" parent="1" vertex="1">
          <mxGeometry x="680" y="110" width="10" height="10" as="geometry" />
        </mxCell>
        <mxCell id="RTo3BK1jIsYrV9mF9zAV-213" style="edgeStyle=orthogonalEdgeStyle;rounded=0;orthogonalLoop=1;jettySize=auto;html=1;exitX=0.5;exitY=1;exitDx=0;exitDy=0;" parent="1" edge="1">
          <mxGeometry relative="1" as="geometry">
            <mxPoint x="655" y="167" as="sourcePoint" />
            <mxPoint x="655" y="167" as="targetPoint" />
          </mxGeometry>
        </mxCell>
        <mxCell id="RTo3BK1jIsYrV9mF9zAV-214" value="" style="shape=umlActor;verticalLabelPosition=bottom;verticalAlign=top;html=1;outlineConnect=0;" parent="1" vertex="1">
          <mxGeometry x="650" y="105" width="10" height="20" as="geometry" />
        </mxCell>
        <mxCell id="RTo3BK1jIsYrV9mF9zAV-215" value="" style="ellipse;whiteSpace=wrap;html=1;aspect=fixed;" parent="1" vertex="1">
          <mxGeometry x="558" y="100" width="30" height="30" as="geometry" />
        </mxCell>
        <mxCell id="RTo3BK1jIsYrV9mF9zAV-216" value="" style="shape=callout;whiteSpace=wrap;html=1;perimeter=calloutPerimeter;position2=0.5;size=10;position=0.5;" parent="1" vertex="1">
          <mxGeometry x="563" y="105" width="20" height="20" as="geometry" />
        </mxCell>
        <mxCell id="RTo3BK1jIsYrV9mF9zAV-231" value="" style="rounded=0;whiteSpace=wrap;html=1;" parent="1" vertex="1">
          <mxGeometry x="640" y="157" width="30" height="30" as="geometry" />
        </mxCell>
        <mxCell id="RTo3BK1jIsYrV9mF9zAV-232" value="" style="shape=image;verticalLabelPosition=bottom;labelBackgroundColor=default;verticalAlign=top;aspect=fixed;imageAspect=0;image=https://www3.gobiernodecanarias.org/medusa/mediateca/ecoescuela/wp-content/uploads/sites/2/2013/11/11-Senal-de-peligro-indeterminado-700x617.png;" parent="1" vertex="1">
          <mxGeometry x="640" y="157" width="30.66" height="27" as="geometry" />
        </mxCell>
        <mxCell id="RTo3BK1jIsYrV9mF9zAV-253" value="Logo" style="rounded=1;whiteSpace=wrap;html=1;" parent="1" vertex="1">
          <mxGeometry x="110" y="102.5" width="60" height="25" as="geometry" />
        </mxCell>
        <mxCell id="RTo3BK1jIsYrV9mF9zAV-254" value="Language" style="rounded=1;whiteSpace=wrap;html=1;" parent="1" vertex="1">
          <mxGeometry x="180" y="102.5" width="60" height="25" as="geometry" />
        </mxCell>
        <mxCell id="RTo3BK1jIsYrV9mF9zAV-255" value="Currency" style="rounded=1;whiteSpace=wrap;html=1;" parent="1" vertex="1">
          <mxGeometry x="250" y="102.5" width="60" height="25" as="geometry" />
        </mxCell>
        <mxCell id="RTo3BK1jIsYrV9mF9zAV-256" value="" style="ellipse;whiteSpace=wrap;html=1;aspect=fixed;" parent="1" vertex="1">
          <mxGeometry x="600" y="100" width="30" height="30" as="geometry" />
        </mxCell>
        <mxCell id="RTo3BK1jIsYrV9mF9zAV-257" value="&lt;div&gt;banner&lt;/div&gt;" style="text;html=1;strokeColor=none;fillColor=none;align=center;verticalAlign=middle;whiteSpace=wrap;rounded=0;" parent="1" vertex="1">
          <mxGeometry x="80" y="80" width="60" height="30" as="geometry" />
        </mxCell>
        <mxCell id="RTo3BK1jIsYrV9mF9zAV-258" value="" style="rounded=0;whiteSpace=wrap;html=1;" parent="1" vertex="1">
          <mxGeometry x="410" y="135" width="300" height="37" as="geometry" />
        </mxCell>
        <mxCell id="RTo3BK1jIsYrV9mF9zAV-259" value="" style="rounded=0;whiteSpace=wrap;html=1;" parent="1" vertex="1">
          <mxGeometry x="410" y="172" width="300" height="37" as="geometry" />
        </mxCell>
        <mxCell id="RTo3BK1jIsYrV9mF9zAV-260" value="" style="rounded=0;whiteSpace=wrap;html=1;" parent="1" vertex="1">
          <mxGeometry x="410" y="209" width="300" height="37" as="geometry" />
        </mxCell>
        <mxCell id="RTo3BK1jIsYrV9mF9zAV-261" value="" style="html=1;verticalLabelPosition=bottom;align=center;labelBackgroundColor=#ffffff;verticalAlign=top;strokeWidth=2;strokeColor=#6c8ebf;shadow=0;dashed=0;shape=mxgraph.ios7.icons.bell;fillColor=#dae8fc;" parent="1" vertex="1">
          <mxGeometry x="603" y="103.44999999999999" width="24" height="23.099999999999998" as="geometry" />
        </mxCell>
        <mxCell id="RTo3BK1jIsYrV9mF9zAV-262" value="" style="ellipse;whiteSpace=wrap;html=1;aspect=fixed;fillColor=#f8cecc;strokeColor=#b85450;" parent="1" vertex="1">
          <mxGeometry x="620" y="100" width="10" height="10" as="geometry" />
        </mxCell>
        <mxCell id="RTo3BK1jIsYrV9mF9zAV-263" value="" style="triangle;whiteSpace=wrap;html=1;rotation=-90;" parent="1" vertex="1">
          <mxGeometry x="607.5" y="120" width="15" height="15" as="geometry" />
        </mxCell>
        <mxCell id="RTo3BK1jIsYrV9mF9zAV-264" value="Notification 1" style="rounded=0;whiteSpace=wrap;html=1;" parent="1" vertex="1">
          <mxGeometry x="420" y="143.5" width="280" height="20" as="geometry" />
        </mxCell>
        <mxCell id="RTo3BK1jIsYrV9mF9zAV-265" value="Notification 2" style="rounded=0;whiteSpace=wrap;html=1;" parent="1" vertex="1">
          <mxGeometry x="420" y="180.5" width="280" height="20" as="geometry" />
        </mxCell>
        <mxCell id="RTo3BK1jIsYrV9mF9zAV-266" value="Notification 3" style="rounded=0;whiteSpace=wrap;html=1;" parent="1" vertex="1">
          <mxGeometry x="420" y="217.5" width="280" height="20" as="geometry" />
        </mxCell>
        <mxCell id="RTo3BK1jIsYrV9mF9zAV-267" value="" style="verticalLabelPosition=bottom;verticalAlign=top;html=1;shape=mxgraph.basic.tick;fillColor=#d5e8d4;strokeColor=#82b366;" parent="1" vertex="1">
          <mxGeometry x="661" y="149" width="12.5" height="10" as="geometry" />
        </mxCell>
        <mxCell id="RTo3BK1jIsYrV9mF9zAV-268" value="" style="verticalLabelPosition=bottom;verticalAlign=top;html=1;shape=mxgraph.basic.tick;fillColor=#d5e8d4;strokeColor=#82b366;" parent="1" vertex="1">
          <mxGeometry x="661" y="185.5" width="12.5" height="10" as="geometry" />
        </mxCell>
        <mxCell id="RTo3BK1jIsYrV9mF9zAV-269" value="" style="shape=cross;whiteSpace=wrap;html=1;rotation=45;fillColor=#f8cecc;strokeColor=#b85450;size=0.1737097852463643;" parent="1" vertex="1">
          <mxGeometry x="680.45" y="146.91" width="14.41" height="14.41" as="geometry" />
        </mxCell>
        <mxCell id="RTo3BK1jIsYrV9mF9zAV-270" value="" style="shape=cross;whiteSpace=wrap;html=1;rotation=45;fillColor=#f8cecc;strokeColor=#b85450;size=0.1737097852463643;" parent="1" vertex="1">
          <mxGeometry x="681.45" y="182.91" width="14.41" height="14.41" as="geometry" />
        </mxCell>
        <mxCell id="RTo3BK1jIsYrV9mF9zAV-271" value="" style="shape=cross;whiteSpace=wrap;html=1;rotation=45;fillColor=#f8cecc;strokeColor=#b85450;size=0.1737097852463643;" parent="1" vertex="1">
          <mxGeometry x="681.45" y="219.91" width="14.41" height="14.41" as="geometry" />
        </mxCell>
        <mxCell id="PHNPZVylgMj2gqCnE8Im-1" value="" style="ellipse;whiteSpace=wrap;html=1;aspect=fixed;" vertex="1" parent="1">
          <mxGeometry x="520" y="100" width="30" height="30" as="geometry" />
        </mxCell>
        <mxCell id="PHNPZVylgMj2gqCnE8Im-2" value="" style="html=1;verticalLabelPosition=bottom;align=center;labelBackgroundColor=#ffffff;verticalAlign=top;strokeWidth=2;strokeColor=#0080F0;shadow=0;dashed=0;shape=mxgraph.ios7.icons.shopping_cart;" vertex="1" parent="1">
          <mxGeometry x="526.13" y="103.45" width="17.75" height="20" as="geometry" />
        </mxCell>
      </root>
    </mxGraphModel>
  </diagram>
</mxfile>
